<svg style="shape-rendering:geometricPrecision;text-rendering:geometricPrecision;image-rendering:optimizeQuality;fill-rule:evenodd;clip-rule:evenodd" viewBox="0.48 0.5 268.52 388" version="1.1" id="svg13" sodipodi:docname="scottish-premiership--no-text-white.svg" inkscape:version="1.4.2 (ebf0e940, 2025-05-08)" xmlns:inkscape="http://www.inkscape.org/namespaces/inkscape" xmlns:sodipodi="http://sodipodi.sourceforge.net/DTD/sodipodi-0.dtd" xmlns="http://www.w3.org/2000/svg" xmlns:svg="http://www.w3.org/2000/svg">
  <defs id="defs13" data-source="https://football-logos.cc"></defs>
  <sodipodi:namedview id="namedview13" pagecolor="#ffffff" bordercolor="#000000" borderopacity="0.25" inkscape:showpageshadow="2" inkscape:pageopacity="0.0" inkscape:pagecheckerboard="0" inkscape:deskcolor="#d1d1d1" showgrid="false" inkscape:zoom="1.4175258" inkscape:cx="134.03636" inkscape:cy="194" inkscape:window-width="1440" inkscape:window-height="769" inkscape:window-x="0" inkscape:window-y="25" inkscape:window-maximized="1" inkscape:current-layer="svg13" data-source="https://football-logos.cc"></sodipodi:namedview>
  <!-- Source: https://football-logos.cc -->
  <path id="path1" style="opacity:0.945;fill:#ffffff;fill-opacity:1" d="M 153.99953 0.5 C 138.24686 0.42 123.91353 4.7533333 110.99953 13.5 C 111.1662 10.173333 112.6662 7.5066667 115.49953 5.5 C 103.49953 4.65 96.666198 10.316667 94.999531 22.5 C 91.424198 19.396667 87.257531 17.73 82.499531 17.5 A 37.4 37.4 0 0 0 86.499531 27.5 C 85.746198 29.753333 84.412865 31.586667 82.499531 33 C 72.146198 36.38 62.479531 41.046667 53.499531 47 C 49.084198 49.998 46.917531 54.164667 46.999531 59.5 A 35.6 35.6 0 0 0 42.499531 63.5 C 50.369531 63.678667 57.369531 66.012 63.499531 70.5 C 64.451531 68.954667 64.784865 67.288 64.499531 65.5 C 68.489531 66.19 72.489531 66.356667 76.499531 66 C 81.557531 63.767333 85.890865 60.600667 89.499531 56.5 C 84.637531 54.68 79.637531 54.18 74.499531 55 A 166 166 0 0 0 58.499531 61.5 C 54.214198 59.263333 53.047531 55.93 54.999531 51.5 C 67.002865 43.42 80.169531 37.92 94.499531 35 C 107.51286 33.59 117.8462 37.423333 125.49953 46.5 C 128.24753 44.709333 131.24753 44.209333 134.49953 45 C 130.9302 49.302667 128.26353 54.136 126.49953 59.5 L 127.99953 60.5 A 367 367 0 0 1 144.49953 53 C 150.4902 51.093333 156.4902 51.093333 162.49953 53 C 162.97953 62.018 159.6462 69.518 152.49953 75.5 C 149.1222 74.658 146.1222 73.158 143.49953 71 A 34.5 34.5 0 0 0 149.49953 65.5 C 148.27086 64.718667 146.93753 64.218667 145.49953 64 A 40.1 40.1 0 0 1 157.49953 55.5 C 147.7962 54.093333 139.62953 57.093333 132.99953 64.5 A 160 160 0 0 0 137.99953 85.5 C 144.65686 110.604 139.65686 132.93733 122.99953 152.5 A 424 424 0 0 0 98.999531 177.5 A 235 235 0 0 0 65.999531 225.5 C 50.325531 275.14933 60.825531 318.316 97.499531 355 C 98.436198 355.692 99.102865 355.52533 99.499531 354.5 C 95.899531 346.86533 92.399531 339.19867 88.999531 331.5 C 71.717531 266.12667 91.550865 215.79333 148.49953 180.5 C 161.21153 174.65467 174.54486 170.988 188.49953 169.5 C 180.37886 161.66667 177.54553 152.33333 179.99953 141.5 C 183.11353 149.9 188.2802 156.73333 195.49953 162 C 197.24353 163.454 198.9102 163.62067 200.49953 162.5 A 34.4 34.4 0 0 1 197.99953 151.5 C 196.41886 140.22933 198.58553 129.896 204.49953 120.5 C 206.90753 128.60733 206.90753 136.774 204.49953 145 C 204.56953 145.76467 204.90286 146.26467 205.49953 146.5 A 2.43 2.43 0 0 0 205.99953 148.5 C 217.78353 132.93133 225.78353 115.598 229.99953 96.5 C 234.71553 71.11 226.21553 51.61 204.49953 38 A 41 41 0 0 1 213.49953 37.5 C 214.37553 37.63 215.0422 37.296667 215.49953 36.5 A 72.5 72.5 0 0 0 209.99953 26.5 C 195.3062 9.49 176.63953 0.82333333 153.99953 0.5 z M 13.499531 74.5 C 12.303531 75.56 11.636865 76.893333 11.499531 78.5 A 136 136 0 0 1 16.999531 100.5 A 114 114 0 0 1 22.999531 113.5 A 25.6 25.6 0 0 0 28.499531 120 C 25.822865 120.24867 23.489531 121.24867 21.499531 123 A 30 30 0 0 1 15.499531 130 C 8.2675312 131.14933 4.1008646 127.98267 2.9995312 120.5 C 0.56419792 124.48267 -0.10246875 128.816 0.99953125 133.5 C 7.0015312 139.43333 13.834865 140.6 21.499531 137 A 212 212 0 0 1 30.499531 126.5 C 33.332865 125.06667 36.332865 124.4 39.499531 124.5 C 39.718865 123.32533 39.385531 122.32533 38.499531 121.5 C 35.979531 120.21467 33.312865 119.548 30.499531 119.5 C 30.069531 116.138 31.069531 113.30467 33.499531 111 A 77.9 77.9 0 0 1 56.499531 109 A 8.9 8.9 0 0 0 60.499531 112 C 66.624865 119.58 65.624865 125.91333 57.499531 131 A 256 256 0 0 1 40.999531 133.5 C 38.391531 131.65 36.224865 129.31667 34.499531 126.5 A 7.25 7.25 0 0 0 31.999531 128.5 C 31.120198 131.81867 30.286865 135.152 29.499531 138.5 C 28.279531 138.88667 27.612865 139.72 27.499531 141 C 28.423531 148.44267 30.923531 155.276 34.999531 161.5 C 36.786865 163.95733 39.120198 165.624 41.999531 166.5 C 44.828198 164.048 47.328198 161.21467 49.499531 158 C 52.047531 155.558 55.047531 153.89133 58.499531 153 C 65.612865 152.34267 72.612865 152.676 79.499531 154 C 86.401531 149.93333 91.734865 144.43333 95.499531 137.5 C 103.28553 128.71 106.28553 118.37667 104.49953 106.5 A 66 66 0 0 1 96.999531 126.5 C 92.309531 132.768 86.142865 136.93467 78.499531 139 A 177 177 0 0 0 55.499531 144 C 52.101531 145.35667 49.101531 147.19 46.499531 149.5 C 44.789531 151.2 42.789531 152.53333 40.499531 153.5 C 34.619531 149.22467 34.286198 144.72467 39.499531 140 A 115.7 115.7 0 0 1 66.499531 136 C 70.663531 135.17667 73.830198 133.01 75.999531 129.5 C 76.684865 121.22133 74.351531 113.888 68.999531 107.5 C 68.332865 103.5 68.332865 99.5 68.999531 95.5 C 70.344865 93.17 70.511531 90.836667 69.499531 88.5 C 59.847531 102.21533 46.847531 107.382 30.499531 104 C 20.960198 100.72133 18.460198 94.554667 22.999531 85.5 A 60.8 60.8 0 0 0 32.499531 75.5 C 30.578198 74.358667 28.578198 74.192 26.499531 75 C 22.069531 78.376667 17.736198 78.21 13.499531 74.5 z M 122.49953 78.5 C 121.95486 81.813333 121.45486 85.146667 120.99953 88.5 C 117.5902 87.378 114.0902 87.211333 110.49953 88 C 120.77753 97.969333 126.77753 110.136 128.49953 124.5 C 129.7982 123.91 130.63153 122.91 130.99953 121.5 C 134.42153 107.724 133.0882 94.390667 126.99953 81.5 C 126.09153 79.561333 124.59153 78.561333 122.49953 78.5 z M 107.62453 99.080078 C 105.24396 99.131587 105.03532 106.27206 106.99953 120.5 A 41 41 0 0 1 100.99953 136.5 A 108 108 0 0 1 84.499531 155 A 474 474 0 0 0 45.999531 189.5 A 132 132 0 0 0 34.999531 205.5 C 29.683531 217.33333 29.183531 229.33333 33.499531 241.5 A 100 100 0 0 1 38.999531 223.5 A 8.9 8.9 0 0 1 41.999531 219.5 C 31.697531 249.99533 36.197531 277.99533 55.499531 303.5 C 56.522865 305.906 57.189531 305.906 57.499531 303.5 C 51.306198 276.49 52.472865 249.82333 60.999531 223.5 A 221.6 221.6 0 0 1 84.499531 185.5 A 380 380 0 0 0 111.99953 156.5 C 121.13886 143.99733 123.4722 130.33067 118.99953 115.5 C 113.51641 104.50844 109.72504 99.034629 107.62453 99.080078 z M 127.49953 225.5 A 74 74 0 0 0 119.99953 232.5 C 108.00753 250.264 103.1742 269.93067 105.49953 291.5 C 104.01286 285.064 103.3462 278.39733 103.49953 271.5 C 103.5262 266.78333 103.85953 262.11667 104.49953 257.5 L 103.49953 256.5 A 6.8 6.8 0 0 0 101.99953 259.5 A 228.5 228.5 0 0 0 99.999531 308.5 C 109.37086 358.70533 139.53753 385.372 190.49953 388.5 L 201.49953 388.5 C 211.2282 387.764 220.89486 385.93067 230.49953 383 A 83 83 0 0 0 249.49953 374 A 340 340 0 0 1 217.49953 380 C 210.25886 380.88467 203.25886 380.38467 196.49953 378.5 C 213.93686 379.41 230.60353 376.24333 246.49953 369 A 90 90 0 0 0 261.49953 356.5 C 265.68353 351.476 268.18353 345.80933 268.99953 339.5 L 259.49953 345 C 254.15286 346.652 249.9862 345.152 246.99953 340.5 A 134 134 0 0 0 240.49953 326.5 C 239.04953 335.70133 234.7162 343.20133 227.49953 349 C 214.74086 356.09333 201.40753 357.26 187.49953 352.5 L 186.49953 354 C 191.3262 361.098 197.99286 365.76467 206.49953 368 C 182.11286 367.32133 161.11286 358.65467 143.49953 342 A 268 268 0 0 0 165.49953 345.5 C 167.71153 345.588 169.71153 345.088 171.49953 344 A 102 102 0 0 1 159.99953 331.5 C 149.01753 316.092 150.1842 301.75867 163.49953 288.5 C 139.8182 290.492 127.8182 279.492 127.49953 255.5 A 253 253 0 0 1 115.99953 273.5 C 115.94753 256.70933 120.1142 241.04267 128.49953 226.5 L 127.49953 225.5 z " data-source="https://football-logos.cc"></path>
  <!-- source: https://football-logos.cc -->
</svg>